<svg width="119" height="118" viewBox="0 0 119 118" fill="none" xmlns="http://www.w3.org/2000/svg">
<rect x="0.375" width="118" height="118" rx="15" fill="url(#paint0_linear_346_1667)"/>
<path d="M75.1862 71.2207H43.5612C42.5027 71.2207 41.6445 72.0788 41.6445 73.1374V75.054C41.6445 76.1126 42.5027 76.9707 43.5612 76.9707H75.1862C76.2447 76.9707 77.1029 76.1126 77.1029 75.054V73.1374C77.1029 72.0788 76.2447 71.2207 75.1862 71.2207Z" stroke="white" stroke-width="2.5" stroke-linecap="round" stroke-linejoin="round"/>
<path d="M46.4362 54.925V71.2359M72.3112 54.925V71.2359M64.1654 54.925V71.2359M54.582 54.925V71.2359M57.5337 42.0374L42.6412 50.1832C42.3396 50.3482 42.0879 50.5914 41.9125 50.8871C41.7372 51.1828 41.6446 51.5203 41.6445 51.8641V53.775C41.6445 54.08 41.7657 54.3725 41.9814 54.5882C42.197 54.8039 42.4895 54.925 42.7945 54.925H75.9529C76.2579 54.925 76.5504 54.8039 76.766 54.5882C76.9817 54.3725 77.1029 54.08 77.1029 53.775V51.8641C77.1028 51.5203 77.0102 51.1828 76.8348 50.8871C76.6595 50.5914 76.4078 50.3482 76.1062 50.1832L61.2137 42.0374C60.6495 41.7287 60.0168 41.5669 59.3737 41.5669C58.7306 41.5669 58.0979 41.7287 57.5337 42.0374Z" stroke="white" stroke-width="2.5" stroke-linecap="round" stroke-linejoin="round"/>
<defs>
<linearGradient id="paint0_linear_346_1667" x1="-19.125" y1="24" x2="90.375" y2="109" gradientUnits="userSpaceOnUse">
<stop stop-color="#114C77"/>
<stop offset="1" stop-color="#208DDD"/>
</linearGradient>
</defs>
</svg>
