<svg width="118" height="118" viewBox="0 0 118 118" fill="none" xmlns="http://www.w3.org/2000/svg">
<rect width="118" height="118" rx="15" fill="url(#paint0_linear_346_1623)"/>
<path d="M50.375 63.3125H53.25V66.1875H50.375V63.3125ZM57.5625 63.3125H60.4375V66.1875H57.5625V63.3125ZM64.75 63.3125H67.625V66.1875H64.75V63.3125Z" fill="white"/>
<path d="M75.5312 77.6875V43.9062H69.0625V37.4375H48.9375V43.9062H42.4688V77.6875H37.4375V80.5625H80.5625V77.6875H75.5312ZM51.8125 40.3125H66.1875V54.6875H51.8125V40.3125ZM72.6562 77.6875H60.4375V71.9375H57.5625V77.6875H45.3438V46.7812H48.9375V57.5625H69.0625V46.7812H72.6562V77.6875Z" fill="white"/>
<path d="M60.4375 43.1875H57.5625V46.0625H54.6875V48.9375H57.5625V51.8125H60.4375V48.9375H63.3125V46.0625H60.4375V43.1875Z" fill="white"/>
<defs>
<linearGradient id="paint0_linear_346_1623" x1="-19.5" y1="24" x2="90" y2="109" gradientUnits="userSpaceOnUse">
<stop stop-color="#114C77"/>
<stop offset="1" stop-color="#208DDD"/>
</linearGradient>
</defs>
</svg>
