<svg width="98" height="111" viewBox="0 0 98 111" fill="none" xmlns="http://www.w3.org/2000/svg">
<rect width="98" height="111" rx="5" fill="url(#paint0_linear_343_1201)"/>
<path d="M37.042 65.9587V47.625H50.792V52.2087H57.2094L61.792 47.625H66.8344C67.4421 47.625 68.0249 47.8664 68.4546 48.2961C68.8843 48.7258 69.1257 49.3086 69.1257 49.9163V72.8337C69.1257 73.4414 68.8843 74.0242 68.4546 74.4539C68.0249 74.8836 67.4421 75.125 66.8344 75.125H32.4594C31.8516 75.1344 31.2479 75.0228 30.6836 74.7967C30.1193 74.5706 29.6056 74.2345 29.1724 73.808C28.7392 73.3815 28.3952 72.8731 28.1604 72.3123C27.9256 71.7516 27.8047 71.1498 27.8047 70.5419C27.8047 69.9339 27.9256 69.3321 28.1604 68.7714C28.3952 68.2106 28.7392 67.7022 29.1724 67.2757C29.6056 66.8492 30.1193 66.5131 30.6836 66.287C31.2479 66.0609 31.8516 65.9493 32.4594 65.9587M37.042 65.9587H32.4594M37.042 65.9587V40.75H32.4594C31.2437 40.75 30.0778 41.2329 29.2182 42.0925C28.3586 42.9521 27.8757 44.118 27.8757 45.3337V70.5413C27.876 69.3258 28.359 68.1602 29.2186 67.3008C30.0782 66.4415 31.2439 65.9587 32.4594 65.9587" stroke="white" stroke-width="2.5" stroke-linecap="round" stroke-linejoin="round"/>
<path d="M68.4623 37.7472L65.2536 34.5396C64.8253 34.1199 64.2495 33.8848 63.6498 33.8848C63.0501 33.8848 62.4743 34.1199 62.046 34.5396L50.793 45.7926V52.2089H57.2104L68.4623 40.9559C68.882 40.5276 69.1171 39.9518 69.1171 39.3521C69.1171 38.7524 68.882 38.1755 68.4623 37.7472Z" stroke="white" stroke-width="2.5" stroke-linecap="round" stroke-linejoin="round"/>
<defs>
<linearGradient id="paint0_linear_343_1201" x1="98" y1="55.5" x2="0" y2="55.5" gradientUnits="userSpaceOnUse">
<stop stop-color="#FFB25F"/>
<stop offset="1" stop-color="#FF8400"/>
</linearGradient>
</defs>
</svg>
