<svg width="118" height="118" viewBox="0 0 118 118" fill="none" xmlns="http://www.w3.org/2000/svg">
<rect width="118" height="118" rx="15" fill="url(#paint0_linear_346_1660)"/>
<path d="M80.5625 73.375H77.6875V53.25C78.0687 53.25 78.4344 53.0985 78.704 52.829C78.9735 52.5594 79.125 52.1937 79.125 51.8125C79.125 51.4313 78.9735 51.0656 78.704 50.796C78.4344 50.5265 78.0687 50.375 77.6875 50.375H69.0625V44.625C69.4437 44.625 69.8094 44.4735 70.079 44.204C70.3486 43.9344 70.5 43.5687 70.5 43.1875C70.5 42.8063 70.3486 42.4406 70.079 42.171C69.8094 41.9015 69.4437 41.75 69.0625 41.75H43.1875C42.8063 41.75 42.4406 41.9015 42.171 42.171C41.9015 42.4406 41.75 42.8063 41.75 43.1875C41.75 43.5687 41.9015 43.9344 42.171 44.204C42.4406 44.4735 42.8063 44.625 43.1875 44.625V73.375H40.3125C39.9313 73.375 39.5656 73.5264 39.296 73.796C39.0265 74.0656 38.875 74.4313 38.875 74.8125C38.875 75.1937 39.0265 75.5594 39.296 75.829C39.5656 76.0985 39.9313 76.25 40.3125 76.25H80.5625C80.9437 76.25 81.3094 76.0985 81.579 75.829C81.8485 75.5594 82 75.1937 82 74.8125C82 74.4313 81.8485 74.0656 81.579 73.796C81.3094 73.5264 80.9437 73.375 80.5625 73.375ZM74.8125 53.25V73.375H69.0625V53.25H74.8125ZM46.0625 44.625H66.1875V73.375H61.875V64.75C61.875 64.3688 61.7236 64.0031 61.454 63.7335C61.1844 63.4639 60.8187 63.3125 60.4375 63.3125H51.8125C51.4313 63.3125 51.0656 63.4639 50.796 63.7335C50.5265 64.0031 50.375 64.3688 50.375 64.75V73.375H46.0625V44.625ZM59 73.375H53.25V66.1875H59V73.375ZM48.9375 50.375C48.9375 49.9938 49.089 49.6281 49.3585 49.3585C49.6281 49.089 49.9938 48.9375 50.375 48.9375H53.25C53.6312 48.9375 53.9969 49.089 54.2665 49.3585C54.536 49.6281 54.6875 49.9938 54.6875 50.375C54.6875 50.7562 54.536 51.1219 54.2665 51.3915C53.9969 51.661 53.6312 51.8125 53.25 51.8125H50.375C49.9938 51.8125 49.6281 51.661 49.3585 51.3915C49.089 51.1219 48.9375 50.7562 48.9375 50.375ZM57.5625 50.375C57.5625 49.9938 57.714 49.6281 57.9835 49.3585C58.2531 49.089 58.6188 48.9375 59 48.9375H61.875C62.2562 48.9375 62.6219 49.089 62.8915 49.3585C63.1611 49.6281 63.3125 49.9938 63.3125 50.375C63.3125 50.7562 63.1611 51.1219 62.8915 51.3915C62.6219 51.661 62.2562 51.8125 61.875 51.8125H59C58.6188 51.8125 58.2531 51.661 57.9835 51.3915C57.714 51.1219 57.5625 50.7562 57.5625 50.375ZM48.9375 57.5625C48.9375 57.1813 49.089 56.8156 49.3585 56.546C49.6281 56.2765 49.9938 56.125 50.375 56.125H53.25C53.6312 56.125 53.9969 56.2765 54.2665 56.546C54.536 56.8156 54.6875 57.1813 54.6875 57.5625C54.6875 57.9437 54.536 58.3094 54.2665 58.579C53.9969 58.8485 53.6312 59 53.25 59H50.375C49.9938 59 49.6281 58.8485 49.3585 58.579C49.089 58.3094 48.9375 57.9437 48.9375 57.5625ZM57.5625 57.5625C57.5625 57.1813 57.714 56.8156 57.9835 56.546C58.2531 56.2765 58.6188 56.125 59 56.125H61.875C62.2562 56.125 62.6219 56.2765 62.8915 56.546C63.1611 56.8156 63.3125 57.1813 63.3125 57.5625C63.3125 57.9437 63.1611 58.3094 62.8915 58.579C62.6219 58.8485 62.2562 59 61.875 59H59C58.6188 59 58.2531 58.8485 57.9835 58.579C57.714 58.3094 57.5625 57.9437 57.5625 57.5625Z" fill="white"/>
<defs>
<linearGradient id="paint0_linear_346_1660" x1="-19.5" y1="24" x2="90" y2="109" gradientUnits="userSpaceOnUse">
<stop stop-color="#114C77"/>
<stop offset="1" stop-color="#208DDD"/>
</linearGradient>
</defs>
</svg>
