<svg width="119" height="118" viewBox="0 0 119 118" fill="none" xmlns="http://www.w3.org/2000/svg">
<rect x="0.375" width="118" height="118" rx="15" fill="url(#paint0_linear_346_1653)"/>
<path d="M46.4375 41.75V73.375H72.3125V41.75H46.4375ZM45 38.875H73.75C74.1312 38.875 74.4969 39.0265 74.7665 39.296C75.0361 39.5656 75.1875 39.9313 75.1875 40.3125V74.8125C75.1875 75.1937 75.0361 75.5594 74.7665 75.829C74.4969 76.0985 74.1312 76.25 73.75 76.25H45C44.6188 76.25 44.2531 76.0985 43.9835 75.829C43.714 75.5594 43.5625 75.1937 43.5625 74.8125V40.3125C43.5625 39.9313 43.714 39.5656 43.9835 39.296C44.2531 39.0265 44.6188 38.875 45 38.875Z" fill="white"/>
<path d="M39.25 73.375H79.5V76.25H39.25V73.375ZM50.75 44.625H56.5V48.9375H50.75V44.625Z" fill="white"/>
<path d="M53.625 73.375H65.125V70.5C65.125 68.975 64.5192 67.5125 63.4409 66.4341C62.3625 65.3558 60.9 64.75 59.375 64.75C57.85 64.75 56.3875 65.3558 55.3091 66.4341C54.2308 67.5125 53.625 68.975 53.625 70.5V73.375ZM59.375 61.875C61.6625 61.875 63.8563 62.7837 65.4738 64.4012C67.0913 66.0187 68 68.2125 68 70.5V76.25H50.75V70.5C50.75 68.2125 51.6587 66.0187 53.2762 64.4012C54.8937 62.7837 57.0875 61.875 59.375 61.875ZM50.75 53.25H56.5V57.5625H50.75V53.25ZM62.25 44.625H68V48.9375H62.25V44.625ZM62.25 53.25H68V57.5625H62.25V53.25Z" fill="white"/>
<defs>
<linearGradient id="paint0_linear_346_1653" x1="-19.125" y1="24" x2="90.375" y2="109" gradientUnits="userSpaceOnUse">
<stop stop-color="#114C77"/>
<stop offset="1" stop-color="#208DDD"/>
</linearGradient>
</defs>
</svg>
