<svg width="119" height="118" viewBox="0 0 119 118" fill="none" xmlns="http://www.w3.org/2000/svg">
<rect x="0.375" width="118" height="118" rx="15" fill="url(#paint0_linear_346_1632)"/>
<path d="M56.5 50.3752H52.1875V40.3127H49.3125V50.3752H45V40.3127H42.125V51.4533C42.125 55.5417 45.2385 58.9457 49.3125 59.6035V78.4065H52.1875V59.6035C56.2615 58.9457 59.375 55.5417 59.375 51.4533V40.3127H56.5V50.3752ZM50.75 56.844C48.2514 56.844 46.1209 55.3416 45.3297 53.2502H56.1703C55.3791 55.3416 53.2486 56.844 50.75 56.844ZM73.5314 39.6108C70.5905 40.0632 67.9087 41.5534 65.9713 43.8117C64.0339 46.07 62.9688 48.9472 62.9688 51.9227V66.9065H72.3125V78.4065H75.1875V39.356L73.5314 39.6108ZM72.3125 64.0315H65.8438V51.9227C65.834 49.9238 66.4535 47.9725 67.6145 46.3453C68.7755 44.7181 70.4191 43.4975 72.3125 42.8564V64.0315Z" fill="white"/>
<defs>
<linearGradient id="paint0_linear_346_1632" x1="-19.125" y1="24" x2="90.375" y2="109" gradientUnits="userSpaceOnUse">
<stop stop-color="#114C77"/>
<stop offset="1" stop-color="#208DDD"/>
</linearGradient>
</defs>
</svg>
