<svg width="118" height="118" viewBox="0 0 118 118" fill="none" xmlns="http://www.w3.org/2000/svg">
<rect width="118" height="118" rx="15" fill="url(#paint0_linear_346_1639)"/>
<path d="M48.6516 52.0999C48.3466 52.0999 48.0541 52.2211 47.8384 52.4367C47.6227 52.6524 47.5016 52.9449 47.5016 53.2499V60.1499C47.5016 60.4549 47.6227 60.7474 47.8384 60.9631C48.0541 61.1787 48.3466 61.2999 48.6516 61.2999H69.3516C69.6566 61.2999 69.9491 61.1787 70.1647 60.9631C70.3804 60.7474 70.5016 60.4549 70.5016 60.1499V53.2499C70.5016 52.9449 70.3804 52.6524 70.1647 52.4367C69.9491 52.2211 69.6566 52.0999 69.3516 52.0999H48.6516ZM49.8016 58.9999V54.3999H68.2016V58.9999H49.8016ZM62.4516 63.5999C62.1466 63.5999 61.8541 63.7211 61.6384 63.9367C61.4227 64.1524 61.3016 64.4449 61.3016 64.7499V69.3499C61.3016 69.6549 61.4227 69.9474 61.6384 70.1631C61.8541 70.3787 62.1466 70.4999 62.4516 70.4999H69.3516C69.6566 70.4999 69.9491 70.3787 70.1647 70.1631C70.3804 69.9474 70.5016 69.6549 70.5016 69.3499V64.7499C70.5016 64.4449 70.3804 64.1524 70.1647 63.9367C69.9491 63.7211 69.6566 63.5999 69.3516 63.5999H62.4516ZM63.6016 68.1999V65.8999H68.2016V68.1999H63.6016ZM40.6016 46.3499C40.6016 45.4349 40.965 44.5574 41.612 43.9104C42.259 43.2634 43.1366 42.8999 44.0516 42.8999H73.9516C74.7663 42.8987 75.5552 43.1859 76.1785 43.7106C76.8018 44.2353 77.2193 44.9636 77.357 45.7667C77.4948 46.5697 77.3439 47.3955 76.9311 48.098C76.5182 48.8004 75.8701 49.334 75.1016 49.6044V73.9499C75.1016 74.2549 74.9804 74.5474 74.7647 74.7631C74.5491 74.9787 74.2566 75.0999 73.9516 75.0999H44.0516C43.7466 75.0999 43.4541 74.9787 43.2384 74.7631C43.0227 74.5474 42.9016 74.2549 42.9016 73.9499V49.6044C42.2286 49.3665 41.6461 48.9257 41.2341 48.3428C40.8222 47.76 40.6012 47.0637 40.6016 46.3499ZM44.0516 45.1999C43.7466 45.1999 43.4541 45.3211 43.2384 45.5367C43.0227 45.7524 42.9016 46.0449 42.9016 46.3499C42.9016 46.6549 43.0227 46.9474 43.2384 47.1631C43.4541 47.3787 43.7466 47.4999 44.0516 47.4999H73.9516C74.2566 47.4999 74.5491 47.3787 74.7647 47.1631C74.9804 46.9474 75.1016 46.6549 75.1016 46.3499C75.1016 46.0449 74.9804 45.7524 74.7647 45.5367C74.5491 45.3211 74.2566 45.1999 73.9516 45.1999H44.0516ZM45.2016 49.7999V72.7999H47.5016V64.7499C47.5016 64.4449 47.6227 64.1524 47.8384 63.9367C48.0541 63.7211 48.3466 63.5999 48.6516 63.5999H57.8516C58.1566 63.5999 58.4491 63.7211 58.6647 63.9367C58.8804 64.1524 59.0016 64.4449 59.0016 64.7499V72.7999H72.8016V49.7999H45.2016ZM49.8016 72.7999H56.7016V65.8999H49.8016V72.7999Z" fill="white"/>
<defs>
<linearGradient id="paint0_linear_346_1639" x1="-19.5" y1="24" x2="90" y2="109" gradientUnits="userSpaceOnUse">
<stop stop-color="#114C77"/>
<stop offset="1" stop-color="#208DDD"/>
</linearGradient>
</defs>
</svg>
